<svg xmlns="http://www.w3.org/2000/svg"  viewBox="0 0 24 24" width="24px" height="24px"><path d="M 10 2 C 5.5876417 2 2 5.5876449 2 10 C 2 14.412355 5.5876417 18 10 18 C 12.026651 18 13.874211 17.238214 15.285156 15.992188 L 21.646484 22.353516 A 0.50005 0.50005 0 1 0 22.353516 21.646484 L 15.992188 15.285156 C 17.238214 13.87421 18 12.026649 18 10 C 18 5.5876449 14.412358 2 10 2 z M 10 3 C 13.871919 3 17 6.128084 17 10 C 17 13.871916 13.871919 17 10 17 C 6.1280815 17 3 13.871916 3 10 C 3 6.128084 6.1280815 3 10 3 z"/></svg>